<svg xmlns="http://www.w3.org/2000/svg" width="150" height="150" viewBox="0 0 150 150">
  <defs>
    <pattern id="bonesPattern" x="0" y="0" width="150" height="150" patternUnits="userSpaceOnUse">
      <!-- Row 1 -->
      <g transform="translate(20, 20) rotate(-20)" opacity="0.15">
        <circle cx="0" cy="5" r="4" fill="var(--primary, #9d9ea0)" stroke="var(--primary, #9d9ea0)" stroke-width="1"/>
        <circle cx="0" cy="-5" r="4" fill="var(--primary, #9d9ea0)" stroke="var(--primary, #9d9ea0)" stroke-width="1"/>
        <rect x="-2" y="-3" width="4" height="6" rx="2" fill="var(--primary, #9d9ea0)" stroke="var(--primary, #9d9ea0)" stroke-width="1"/>
        <circle cx="20" cy="5" r="4" fill="var(--primary, #9d9ea0)" stroke="var(--primary, #9d9ea0)" stroke-width="1"/>
        <circle cx="20" cy="-5" r="4" fill="var(--primary, #9d9ea0)" stroke="var(--primary, #9d9ea0)" stroke-width="1"/>
        <rect x="18" y="-3" width="4" height="6" rx="2" fill="var(--primary, #9d9ea0)" stroke="var(--primary, #9d9ea0)" stroke-width="1"/>
        <rect x="2" y="-1.5" width="16" height="3" rx="1.5" fill="var(--primary, #9d9ea0)" stroke="var(--primary, #9d9ea0)" stroke-width="1"/>
      </g>
      
      <g transform="translate(75, 15) rotate(10)" opacity="0.15">
        <circle cx="0" cy="4" r="3.5" fill="var(--accent, #8875b3)" stroke="var(--accent, #8875b3)" stroke-width="1"/>
        <circle cx="0" cy="-4" r="3.5" fill="var(--accent, #8875b3)" stroke="var(--accent, #8875b3)" stroke-width="1"/>
        <rect x="-1.5" y="-2.5" width="3" height="5" rx="1.5" fill="var(--accent, #8875b3)" stroke="var(--accent, #8875b3)" stroke-width="1"/>
        <circle cx="18" cy="4" r="3.5" fill="var(--accent, #8875b3)" stroke="var(--accent, #8875b3)" stroke-width="1"/>
        <circle cx="18" cy="-4" r="3.5" fill="var(--accent, #8875b3)" stroke="var(--accent, #8875b3)" stroke-width="1"/>
        <rect x="16.5" y="-2.5" width="3" height="5" rx="1.5" fill="var(--accent, #8875b3)" stroke="var(--accent, #8875b3)" stroke-width="1"/>
        <rect x="1.5" y="-1.5" width="15" height="3" rx="1.5" fill="var(--accent, #8875b3)" stroke="var(--accent, #8875b3)" stroke-width="1"/>
      </g>
      
      <g transform="translate(130, 25) rotate(-15)" opacity="0.15">
        <circle cx="0" cy="4" r="3.5" fill="#7760a8" stroke="#7760a8" stroke-width="1"/>
        <circle cx="0" cy="-4" r="3.5" fill="#7760a8" stroke="#7760a8" stroke-width="1"/>
        <rect x="-1.5" y="-2.5" width="3" height="5" rx="1.5" fill="#7760a8" stroke="#7760a8" stroke-width="1"/>
        <circle cx="18" cy="4" r="3.5" fill="#7760a8" stroke="#7760a8" stroke-width="1"/>
        <circle cx="18" cy="-4" r="3.5" fill="#7760a8" stroke="#7760a8" stroke-width="1"/>
        <rect x="16.5" y="-2.5" width="3" height="5" rx="1.5" fill="#7760a8" stroke="#7760a8" stroke-width="1"/>
        <rect x="1.5" y="-1.5" width="15" height="3" rx="1.5" fill="#7760a8" stroke="#7760a8" stroke-width="1"/>
      </g>

      <!-- Row 2 -->
      <g transform="translate(45, 55) rotate(25)" opacity="0.15">
        <circle cx="0" cy="4" r="3.5" fill="var(--secondary, #9d9ea0)" stroke="var(--secondary, #9d9ea0)" stroke-width="1"/>
        <circle cx="0" cy="-4" r="3.5" fill="var(--secondary, #9d9ea0)" stroke="var(--secondary, #9d9ea0)" stroke-width="1"/>
        <rect x="-1.5" y="-2.5" width="3" height="5" rx="1.5" fill="var(--secondary, #9d9ea0)" stroke="var(--secondary, #9d9ea0)" stroke-width="1"/>
        <circle cx="18" cy="4" r="3.5" fill="var(--secondary, #9d9ea0)" stroke="var(--secondary, #9d9ea0)" stroke-width="1"/>
        <circle cx="18" cy="-4" r="3.5" fill="var(--secondary, #9d9ea0)" stroke="var(--secondary, #9d9ea0)" stroke-width="1"/>
        <rect x="16.5" y="-2.5" width="3" height="5" rx="1.5" fill="var(--secondary, #9d9ea0)" stroke="var(--secondary, #9d9ea0)" stroke-width="1"/>
        <rect x="1.5" y="-1.5" width="15" height="3" rx="1.5" fill="var(--secondary, #9d9ea0)" stroke="var(--secondary, #9d9ea0)" stroke-width="1"/>
      </g>
      
      <g transform="translate(105, 60) rotate(-5)" opacity="0.15">
        <circle cx="0" cy="4" r="3.5" fill="#6650a0" stroke="#6650a0" stroke-width="1"/>
        <circle cx="0" cy="-4" r="3.5" fill="#6650a0" stroke="#6650a0" stroke-width="1"/>
        <rect x="-1.5" y="-2.5" width="3" height="5" rx="1.5" fill="#6650a0" stroke="#6650a0" stroke-width="1"/>
        <circle cx="18" cy="4" r="3.5" fill="#6650a0" stroke="#6650a0" stroke-width="1"/>
        <circle cx="18" cy="-4" r="3.5" fill="#6650a0" stroke="#6650a0" stroke-width="1"/>
        <rect x="16.5" y="-2.5" width="3" height="5" rx="1.5" fill="#6650a0" stroke="#6650a0" stroke-width="1"/>
        <rect x="1.5" y="-1.5" width="15" height="3" rx="1.5" fill="#6650a0" stroke="#6650a0" stroke-width="1"/>
      </g>

      <!-- Row 3 -->
      <g transform="translate(15, 95) rotate(15)" opacity="0.15">
        <circle cx="0" cy="4" r="3.5" fill="var(--accent, #8875b3)" stroke="var(--accent, #8875b3)" stroke-width="1"/>
        <circle cx="0" cy="-4" r="3.5" fill="var(--accent, #8875b3)" stroke="var(--accent, #8875b3)" stroke-width="1"/>
        <rect x="-1.5" y="-2.5" width="3" height="5" rx="1.5" fill="var(--accent, #8875b3)" stroke="var(--accent, #8875b3)" stroke-width="1"/>
        <circle cx="18" cy="4" r="3.5" fill="var(--accent, #8875b3)" stroke="var(--accent, #8875b3)" stroke-width="1"/>
        <circle cx="18" cy="-4" r="3.5" fill="var(--accent, #8875b3)" stroke="var(--accent, #8875b3)" stroke-width="1"/>
        <rect x="16.5" y="-2.5" width="3" height="5" rx="1.5" fill="var(--accent, #8875b3)" stroke="var(--accent, #8875b3)" stroke-width="1"/>
        <rect x="1.5" y="-1.5" width="15" height="3" rx="1.5" fill="var(--accent, #8875b3)" stroke="var(--accent, #8875b3)" stroke-width="1"/>
      </g>
      
      <g transform="translate(80, 90) rotate(-25)" opacity="0.15">
        <circle cx="0" cy="4" r="3.5" fill="var(--primary, #7760a8)" stroke="var(--primary, #7760a8)" stroke-width="1"/>
        <circle cx="0" cy="-4" r="3.5" fill="var(--primary, #7760a8)" stroke="var(--primary, #7760a8)" stroke-width="1"/>
        <rect x="-1.5" y="-2.5" width="3" height="5" rx="1.5" fill="var(--primary, #7760a8)" stroke="var(--primary, #7760a8)" stroke-width="1"/>
        <circle cx="18" cy="4" r="3.5" fill="var(--primary, #7760a8)" stroke="var(--primary, #7760a8)" stroke-width="1"/>
        <circle cx="18" cy="-4" r="3.5" fill="var(--primary, #7760a8)" stroke="var(--primary, #7760a8)" stroke-width="1"/>
        <rect x="16.5" y="-2.5" width="3" height="5" rx="1.5" fill="var(--primary, #7760a8)" stroke="var(--primary, #7760a8)" stroke-width="1"/>
        <rect x="1.5" y="-1.5" width="15" height="3" rx="1.5" fill="var(--primary, #7760a8)" stroke="var(--primary, #7760a8)" stroke-width="1"/>
      </g>

      <!-- Row 4 -->
      <g transform="translate(35, 125) rotate(5)" opacity="0.15">
        <circle cx="0" cy="4" r="3.5" fill="var(--secondary, #9d9ea0)" stroke="var(--secondary, #9d9ea0)" stroke-width="1"/>
        <circle cx="0" cy="-4" r="3.5" fill="var(--secondary, #9d9ea0)" stroke="var(--secondary, #9d9ea0)" stroke-width="1"/>
        <rect x="-1.5" y="-2.5" width="3" height="5" rx="1.5" fill="var(--secondary, #9d9ea0)" stroke="var(--secondary, #9d9ea0)" stroke-width="1"/>
        <circle cx="18" cy="4" r="3.5" fill="var(--secondary, #9d9ea0)" stroke="var(--secondary, #9d9ea0)" stroke-width="1"/>
        <circle cx="18" cy="-4" r="3.5" fill="var(--secondary, #9d9ea0)" stroke="var(--secondary, #9d9ea0)" stroke-width="1"/>
        <rect x="16.5" y="-2.5" width="3" height="5" rx="1.5" fill="var(--secondary, #9d9ea0)" stroke="var(--secondary, #9d9ea0)" stroke-width="1"/>
        <rect x="1.5" y="-1.5" width="15" height="3" rx="1.5" fill="var(--secondary, #9d9ea0)" stroke="var(--secondary, #9d9ea0)" stroke-width="1"/>
      </g>
      
      <g transform="translate(120, 130) rotate(-30)" opacity="0.15">
        <circle cx="0" cy="4" r="3.5" fill="#6650a0" stroke="#6650a0" stroke-width="1"/>
        <circle cx="0" cy="-4" r="3.5" fill="#6650a0" stroke="#6650a0" stroke-width="1"/>
        <rect x="-1.5" y="-2.5" width="3" height="5" rx="1.5" fill="#6650a0" stroke="#6650a0" stroke-width="1"/>
        <circle cx="18" cy="4" r="3.5" fill="#6650a0" stroke="#6650a0" stroke-width="1"/>
        <circle cx="18" cy="-4" r="3.5" fill="#6650a0" stroke="#6650a0" stroke-width="1"/>
        <rect x="16.5" y="-2.5" width="3" height="5" rx="1.5" fill="#6650a0" stroke="#6650a0" stroke-width="1"/>
        <rect x="1.5" y="-1.5" width="15" height="3" rx="1.5" fill="#6650a0" stroke="#6650a0" stroke-width="1"/>
      </g>
    </pattern>
  </defs>
  
  <rect width="150" height="150" fill="url(#bonesPattern)"/>
</svg>
